<?xml version="1.0" encoding="UTF-8"?>
<svg id="Layer_1" data-name="Layer 1" xmlns="http://www.w3.org/2000/svg" viewBox="0 0 163.82 248.13">
  <defs>
    <style>
      .cls-1 {
        fill: #fff;
        stroke: #fff;
        stroke-miterlimit: 10;
        stroke-width: 7px;
      }
    </style>
  </defs>
  <path class="cls-1" d="M78.81,3.62c22.97-1.76,41.44,15.59,42.79,38.21,1.65,27.72-1.29,57.05,0,84.94-4.87,51.24-76.89,50.88-79.49-2.72-1.39-28.56.67-57.66.53-86.22C45.01,19.42,60.32,5.04,78.81,3.62ZM77.44,12.69c-14.07,1.59-25.61,14.7-26.25,28.68,1.55,28-1.99,58.1,0,85.85,2.7,37.6,57.47,38.1,61.33.91-1.71-28.62,2.22-59.79,0-88.11-1.39-17.76-17.89-29.26-35.08-27.33Z"/>
  <path class="cls-1" d="M86.23,203.32l-.07,38.29c-1.56,3.69-6.27,4.14-8.27.57l-.41-38.86c-9.68-1.07-18.88-2.95-27.79-6.94-25.04-11.2-43.02-35.86-45.69-63.27-.17-1.75-.58-5.69-.47-7.25.27-3.99,3.72-6.35,7.26-4.08,2.86,1.83,1.56,5.76,1.84,8.6,2.13,21.74,13.26,41.39,31.81,53.09,44.09,27.8,101.3-.11,106.65-51.72.33-3.19-1.16-9.92,3.44-10.64,7.64-1.19,5.72,8.52,5.19,13.36-3.55,32.1-28.19,59.41-59.55,66.67-4.6,1.06-9.29,1.44-13.93,2.19Z"/>
</svg>